#!OML:ASF X:\für Bonn\!DataBase\2005_08_11_Bastian_Final\c3d\Bastian.ASF
:FULLY-SPECIFIED
:DEGREES
96
root 5.01736 14.7534 -3.5588 785.688 83.2532 -290.116
lowerback 58.1325 -9.97502 14.8499
upperback 16.3999 1.94848 6.15687
thorax -2.04608 2.7936 -0.219221
lowerneck 2.2892 -16.3379 4.77365
upperneck -20.79 -18.6761 21.1961
head -5.04392 -11.2646 6.6896
rclavicle 4.77083e-014 1.05753e-013
rhumerus 29.8134 -1.35117 -45.1726
rradius 23.3881
rwrist 0.0960254
rhand -26.9555 -1.02197
rfingers 7.12502
rthumb -0.377121 -31.0014
lclavicle 4.77083e-014 1.05753e-013
lhumerus 5.88626 -28.01 68.6527
lradius 61.5381
lwrist 29.946
lhand -15.4014 -10.735
lfingers 7.12502
lthumb 10.7776 18.9685
rfemur -51.5606 -3.03801 9.56685
rtibia 73.88
rfoot -16.3207 -3.52914
rtoes -26.5535
lfemur -44.6473 7.93099 -34.003
ltibia 70.1007
lfoot -12.1223 -9.66859
ltoes 14.5828
97
root 5.05691 14.6217 -3.5495 787.441 82.9997 -288.465
lowerback 58.4213 -10.0383 14.8895
upperback 16.4052 2.01109 6.22483
thorax -2.04323 2.82813 -0.164828
lowerneck 2.27245 -16.4468 4.87608
upperneck -21.0601 -18.8122 21.1243
head -5.13474 -11.3556 6.68168
rclavicle 1.145e-013 1.68569e-013
rhumerus 29.8872 -1.91208 -44.8617
rradius 23.5059
rwrist 0.350846
rhand -27.2126 -0.925178
rfingers 7.12502
rthumb -0.625456 -30.904
lclavicle 1.145e-013 1.68569e-013
lhumerus 6.54417 -27.634 68.1947
lradius 62.3644
lwrist 30.2511
lhand -15.6836 -11.1814
lfingers 7.12502
lthumb 10.5054 18.536
rfemur -52.6708 -3.12636 9.21972
rtibia 75.6104
rfoot -16.3917 -3.67929
rtoes -26.624
lfemur -45.6273 7.90404 -34.3991
ltibia 71.8564
lfoot -12.9284 -9.95191
ltoes 15.2782
98
root 5.0973 14.4861 -3.53948 789.405 82.7217 -286.59
lowerback 58.648 -10.0902 14.897
upperback 16.444 2.06053 6.32238
thorax -2.00624 2.85724 -0.062963
lowerneck 2.20589 -16.5503 4.91425
upperneck -21.3155 -18.9547 21.0635
head -5.20317 -11.4432 6.67711
rclavicle 8.5875e-014 -3.18055e-015
rhumerus 29.9343 -2.39893 -44.4537
rradius 23.7112
rwrist 0.458553
rhand -27.4317 -0.899373
rfingers 7.12502
rthumb -0.837028 -30.8775
lclavicle 8.5875e-014 -3.18055e-015
lhumerus 7.17741 -27.2813 67.7987
lradius 63.1673
lwrist 30.443
lhand -15.9436 -11.507
lfingers 7.12502
lthumb 10.2546 18.2231
rfemur -53.7649 -3.20665 8.81817
rtibia 77.3606
rfoot -16.4522 -3.88089
rtoes -26.6541
lfemur -46.5944 7.83227 -34.822
ltibia 73.6112
lfoot -13.7116 -10.2491
ltoes 16.1557
99
root 5.1376 14.3475 -3.52947 791.288 82.4126 -284.75
lowerback 58.9402 -10.183 14.9103
upperback 16.4557 2.07946 6.3671
thorax -1.99772 2.87534 -0.00595312
lowerneck 2.10365 -16.6396 4.95735
upperneck -21.5517 -19.0769 21.0302
head -5.25903 -11.5199 6.67452
rclavicle 5.40694e-014 2.38542e-015
rhumerus 29.9824 -2.93683 -44.1471
rradius 23.8392
rwrist 0.671889
rhand -27.6602 -0.804931
rfingers 7.12502
rthumb -1.05775 -30.7821
lclavicle 5.40694e-014 2.38542e-015
lhumerus 7.80306 -26.9032 67.4269
lradius 63.8909
lwrist 30.5475
lhand -16.0771 -11.8087
lfingers 7.12502
lthumb 10.1257 17.9276
rfemur -54.8165 -3.26766 8.37545
rtibia 79.1187
rfoot -16.5522 -4.08842
rtoes -26.5899
lfemur -47.5056 7.77281 -35.2785
ltibia 75.3629
lfoot -14.5207 -10.5317
ltoes 16.655
100
root 5.18192 14.2072 -3.51807 793.242 82.1592 -282.845
lowerback 59.2544 -10.3298 14.9831
upperback 16.4214 2.08099 6.41966
thorax -2.03355 2.88197 0.0453487
lowerneck 1.97047 -16.7017 4.93495
upperneck -21.7502 -19.1743 20.9994
head -5.29155 -11.5756 6.67227
rclavicle -3.18055e-015 5.725e-014
rhumerus 30.016 -3.44495 -43.8786
rradius 23.9857
rwrist 0.870024
rhand -27.9347 -0.654465
rfingers 7.12502
rthumb -1.32281 -30.6301
lclavicle -3.18055e-015 5.725e-014
lhumerus 8.34935 -26.5671 67.108
lradius 64.5646
lwrist 30.6005
lhand -16.2811 -12.1361
lfingers 7.12502
lthumb 9.92895 17.6098
rfemur -55.8169 -3.30056 7.96818
rtibia 80.8718
rfoot -16.6898 -4.40161
rtoes -26.5329
lfemur -48.4028 7.64751 -35.6629
ltibia 77.1163
lfoot -15.2997 -10.8349
ltoes 17.5307
101
root 5.22612 14.0646 -3.50614 795.132 81.8698 -281.018
lowerback 59.4973 -10.4604 15.0405
upperback 16.4174 2.0725 6.46459
thorax -2.03482 2.88755 0.0948366
lowerneck 1.85089 -16.7412 4.87971
upperneck -22.0339 -19.2192 21.0285
head -5.34721 -11.6133 6.69994
rclavicle 1.90833e-014 -9.54166e-015
rhumerus 30.0481 -3.96315 -43.6254
rradius 24.1329
rwrist 1.08723
rhand -28.1426 -0.548453
rfingers 7.12502
rthumb -1.52363 -30.5228
lclavicle 1.90833e-014 -9.54166e-015
lhumerus 8.9322 -26.252 66.8222
lradius 65.1765
lwrist 30.4996
lhand -16.5361 -12.4285
lfingers 7.12502
lthumb 9.68294 17.329
rfemur -56.8403 -3.25941 7.49839
rtibia 82.6293
rfoot -16.8639 -4.70074
rtoes -26.1758
lfemur -49.3128 7.52765 -36.0877
ltibia 78.8639
lfoot -16.1072 -11.1224
ltoes 18.1947
